<?xml version="1.0" encoding="UTF-8"?>
<svg id="_图层_2" data-name="图层 2" xmlns="http://www.w3.org/2000/svg" viewBox="0 0 223.28 223.28">
  <defs>
    <style>
      .cls-1 {
        fill: #fff;
      }

      .cls-1, .cls-2 {
        stroke-width: 0px;
      }

      .cls-2 {
        fill: #29a37d;
      }
    </style>
  </defs>
  <g id="_图层_1-2" data-name="图层 1">
    <g>
      <circle class="cls-2" cx="111.64" cy="111.64" r="111.64"/>
      <path class="cls-1" d="m145.95,96.76c-7.25-.76-14.53-1.3-21.81-1.6v-14.61h38.78v-26H59.36v26h38.78v14.56c-7.15.28-14.29.81-21.42,1.61-7.65,1.12-32.76,3.63-33.19,13.44.27,9.76,25.37,12.99,33.09,14.23,7.15.9,14.33,1.54,21.52,1.91v53.44h26v-53.36c7.32-.33,14.64-.98,21.92-1.95,7.65-1.27,32.81-4.48,33.08-14.26-.43-9.77-25.48-12.31-33.19-13.4Zm-.6,22.08c-1.61.17-3.59.36-5.7.56-9.51.89-19.06,1.34-28.61,1.34h0c-9.87,0-19.74-.47-29.57-1.43-1.53-.15-2.95-.3-4.15-.43-6.4-.83-25.99-3.28-29.04-8.72,2.53-5.5,22.68-8.63,28.93-9.51,6.93-.88,13.92-1.5,20.92-1.86v19.13h26v-19.21c7.14.33,14.25.96,21.32,1.91,6.17.91,26.41,4.03,28.93,9.55-3.03,5.41-22.6,7.89-29.04,8.68Z"/>
    </g>
  </g>
</svg>