<svg xmlns="http://www.w3.org/2000/svg" xmlns:xlink="http://www.w3.org/1999/xlink" fill="none" version="1.1" width="85" height="84.15840911865234" viewBox="0 0 85 84.15840911865234"><defs><clipPath id="master_svg0_8_095"><rect x="0" y="0" width="85" height="84.15840911865234" rx="0"/></clipPath></defs><g clip-path="url(#master_svg0_8_095)"><g></g><g><path d="M35.75655298828125,18.907944921875L56.16501298828125,39.114294921875Q56.17561298828125,39.124794921875,56.18611298828125,39.135394921875005Q56.28981298828125,39.240094921875,56.38271298828125,39.354494921875Q56.47561298828125,39.468894921875,56.556912988281255,39.591894921874996Q56.63821298828125,39.714794921875,56.70701298828125,39.845094921875Q56.775812988281245,39.975494921875,56.83151298828125,40.111894921875Q56.88731298828125,40.248294921875,56.929312988281254,40.389594921875Q56.97141298828125,40.530794921875,56.99941298828125,40.675494921875Q57.027512988281245,40.820194921875,57.041212988281245,40.966994921875Q57.054912988281245,41.113694921874995,57.05421298828125,41.261094921875Q57.05341298828125,41.408494921875004,57.03831298828125,41.554994921875Q57.023112988281255,41.701594921875,56.99361298828125,41.845994921875004Q56.96411298828125,41.990494921875,56.92071298828125,42.131294921874996Q56.87721298828125,42.272094921874995,56.82011298828125,42.407994921875Q56.76301298828125,42.543894921875,56.69291298828125,42.673494921875005Q56.622812988281254,42.803094921875,56.54031298828125,42.925194921875004Q56.45781298828125,43.047394921875,56.36381298828125,43.160794921874995Q56.26971298828125,43.274294921875,56.16501298828125,43.377994921875L35.75744298828125,63.583494921875L35.75655298828125,63.584294921875Q35.54792298828125,63.790894921875,35.30320298828125,63.953094921875Q35.05848298828125,64.115294921875,34.78696298828125,64.22699492187499Q34.51544398828125,64.338694921875,34.22742398828125,64.395594921875Q33.93940398828125,64.452494921875,33.64581298828125,64.452494921875Q33.49843198828125,64.452494921875,33.35176198828125,64.438094921875Q33.20509098828125,64.42359492187501,33.06054198828125,64.394894921875Q32.91599298828125,64.366094921875,32.77495898828125,64.323294921875Q32.63392298828125,64.280494921875,32.49776298828125,64.22409492187501Q32.36160298828125,64.167694921875,32.23162298828125,64.09829492187501Q32.10164298828125,64.028794921875,31.97910298828125,63.946894921875Q31.85656298828125,63.864994921875,31.74263298828125,63.771494921875Q31.62870298828125,63.677994921875,31.52449298828125,63.573794921875Q31.42028298828125,63.469594921875,31.32678298828125,63.355694921875Q31.23328298828125,63.241794921875,31.15140298828125,63.119194921875Q31.06952298828125,62.996694921875,31.00005298828125,62.866694921875Q30.93057298828125,62.736694921875,30.87417298828125,62.600494921875Q30.81777298828125,62.464394921875,30.774992988281248,62.323394921875Q30.73221298828125,62.182294921875,30.70345298828125,62.037794921875Q30.67470298828125,61.893194921875,30.66026298828125,61.746594921875Q30.64581298828125,61.599894921875,30.64581298828125,61.452494921875Q30.64581298828125,61.155094921875,30.70418298828125,60.863594921875Q30.76256298828125,60.571994921875,30.87704298828125,60.297594921875Q30.99151298828125,60.023094921875,31.15764298828125,59.776494921875Q31.32376298828125,59.529894921875,31.53507298828125,59.320694921875L31.53596298828125,59.319794921875L49.79031298828125,41.246194921875L31.53507298828125,23.171644921875Q31.32376298828125,22.962424921875,31.15764298828125,22.715804921875Q30.99151298828125,22.469174921875002,30.87704298828125,22.194734921875Q30.76256298828125,21.920296921875,30.70418298828125,21.628724921875Q30.64581298828125,21.337152921875,30.64581298828125,21.039794921875Q30.64581298828125,20.892413921875,30.66026298828125,20.745743921875Q30.67470298828125,20.599072921875,30.70345298828125,20.454523921875Q30.73221298828125,20.309974921875,30.774992988281248,20.168940921875Q30.81777298828125,20.027904921875,30.87417298828125,19.891744921875Q30.93057298828125,19.755584921875,31.00005298828125,19.625604921875Q31.06952298828125,19.495624921875,31.15140298828125,19.373084921875Q31.23328298828125,19.250544921875,31.32678298828125,19.136614921875Q31.42028298828125,19.022684921875,31.52449298828125,18.918474921875Q31.62870298828125,18.814264921875,31.74263298828125,18.720764921875Q31.85656298828125,18.627264921875,31.97910298828125,18.545384921875Q32.10164298828125,18.463504921875,32.23162298828125,18.394034921875Q32.36160298828125,18.324554921875,32.49776298828125,18.268154921875Q32.63392298828125,18.211754921875,32.77495898828125,18.168974921874998Q32.91599298828125,18.126194921875,33.06054198828125,18.097434921875Q33.20509098828125,18.068684921875,33.35176198828125,18.054244921875Q33.49843198828125,18.039794921875,33.64581298828125,18.039794921875Q33.93940398828125,18.039794921875,34.22742398828125,18.096714921874998Q34.51544398828125,18.153634921875,34.78696298828125,18.265304921875Q35.05848298828125,18.376984921875,35.30320298828125,18.539184921875Q35.54792298828125,18.701384921875,35.75655298828125,18.907944921875Z" fill-rule="evenodd" fill="#FFFFFF" fill-opacity="1" style="mix-blend-mode:passthrough"/></g></g></svg>