<?xml version="1.0" standalone="no"?><!DOCTYPE svg PUBLIC "-//W3C//DTD SVG 1.1//EN" "http://www.w3.org/Graphics/SVG/1.1/DTD/svg11.dtd"><svg t="1732603432588" class="icon" viewBox="0 0 1024 1024" version="1.1" xmlns="http://www.w3.org/2000/svg" p-id="4285" xmlns:xlink="http://www.w3.org/1999/xlink" width="200" height="200"><path d="M680 312h72c26.4 0 48 21.6 48 48v368c0 26.4-21.6 48-48 48H280c-26.4 0-48-21.6-48-48V360c0-26.4 21.6-48 48-48h64v-32c0-17.6 14.4-32 32-32s32 14.4 32 32v32h208v-32c0-17.6 14.4-32 32-32s32 14.4 32 32v32z m-384 48c-8.8 0-16 7.2-16 16v336c0 8.8 7.2 16 16 16h440c8.8 0 16-7.2 16-16V376c0-8.8-7.2-16-16-16H296z m100 256c37.6 0 68-30.4 68-68S433.6 480 396 480 328 510.4 328 548s30.4 68 68 68z m232 0c-37.6 0-68-30.4-68-68s30.4-68 68-68 68 30.4 68 68-30.4 68-68 68zM864 448c17.6 0 32 14.4 32 32v136c0 17.6-14.4 32-32 32s-32-14.4-32-32V480c0-17.6 14.4-32 32-32z m-704 0c17.6 0 32 14.4 32 32v136c0 17.6-14.4 32-32 32s-32-14.4-32-32V480c0-17.6 14.4-32 32-32z" fill="#8F939A" p-id="4286"></path></svg>