<?xml version="1.0" encoding="UTF-8"?>
<svg id="_图层_2" data-name="图层 2" xmlns="http://www.w3.org/2000/svg" viewBox="0 0 41.29 12.48">
  <defs>
    <style>
      .cls-1 {
        fill: #fff;
        stroke: #3d56b2;
        stroke-miterlimit: 10;
        stroke-width: .6px;
      }
    </style>
  </defs>
  <g id="_图层_1-2" data-name="图层 1">
    <g>
      <path class="cls-1" d="m6.27,9.52H.3V.3h5.85v2.03h-3.49v1.51h3.22v1.95h-3.22v1.69h3.61v2.03Z"/>
      <path class="cls-1" d="m18.68,4.84v4.68h-2.25v-4.33c0-.45-.07-.76-.22-.93-.15-.17-.4-.25-.75-.25s-.62.07-.8.22c-.18.15-.3.38-.37.71v4.58h-2.25v-4.33c0-.45-.08-.76-.23-.93s-.4-.25-.74-.25-.6.06-.76.19c-.16.12-.27.33-.35.61v4.72h-2.23V2.35h2.23v.77c.19-.29.44-.52.76-.67s.74-.23,1.25-.23.95.08,1.28.23c.33.15.58.39.75.71.36-.63,1.11-.94,2.25-.94.82,0,1.42.2,1.82.61.4.41.6,1.08.6,2.02Z"/>
      <path class="cls-1" d="m27.52,5.93c0,1.18-.2,2.09-.6,2.74-.4.65-1.14.98-2.2.98-.6,0-1.07-.08-1.39-.23-.32-.15-.56-.38-.71-.68v3.44h-2.25V2.35h2.25v.72c.16-.25.41-.45.75-.61.34-.16.79-.24,1.35-.24.74,0,1.31.15,1.72.44.41.29.7.71.85,1.24.15.54.23,1.22.23,2.04Zm-3.6,2.06c.54,0,.9-.17,1.07-.52.17-.35.26-.86.26-1.54s-.09-1.22-.27-1.57c-.18-.35-.53-.52-1.06-.52s-.93.17-1.13.5c-.2.34-.31.86-.31,1.58s.1,1.21.31,1.55.58.51,1.13.51Z"/>
      <path class="cls-1" d="m32.1,7.87c.22,0,.38-.01.48-.04v1.7c-.31.04-.63.07-.97.07-.64,0-1.13-.07-1.49-.21-.35-.14-.61-.39-.77-.73s-.24-.84-.24-1.48v-3.1h-.89v-1.74h.89V.65h2.25v1.7h1.38v1.74h-1.38v2.9c0,.36.05.6.15.72.1.12.3.17.59.17Z"/>
      <path class="cls-1" d="m35.72,9.44l-2.76-7.1h2.5l1.5,4.78h.08l1.4-4.78h2.43l-2.33,6.34c-.36.98-.73,1.72-1.09,2.21s-.81.82-1.34,1.01c-.53.19-1.25.28-2.16.28v-1.94c.58,0,.99-.06,1.26-.19.26-.13.43-.33.51-.6Z"/>
    </g>
  </g>
</svg>