<svg xmlns="http://www.w3.org/2000/svg" xmlns:xlink="http://www.w3.org/1999/xlink" fill="none" version="1.1" width="51" height="36" viewBox="0 0 51 36"><defs><clipPath id="master_svg0_8_078"><rect x="0" y="0" width="51" height="36" rx="0"/></clipPath></defs><g clip-path="url(#master_svg0_8_078)"><g><path d="M49.6213,5.12132Q49.8302,4.91239,49.9944,4.66671Q50.1586,4.42103,50.2716,4.14805Q50.3847,3.8750679999999997,50.4424,3.585271Q50.5,3.295474,50.5,3Q50.5,2.852619,50.4856,2.705949Q50.4711,2.559278,50.4424,2.414729Q50.4136,2.27018,50.3708,2.129146Q50.328,1.98811,50.2716,1.85195Q50.2152,1.71579,50.1458,1.58581Q50.0763,1.45583,49.9944,1.33329Q49.9125,1.21075,49.819,1.09682Q49.7255,0.9828899999999998,49.6213,0.8786800000000001Q49.5171,0.77447,49.4032,0.6809699999999999Q49.2893,0.5874700000000002,49.1667,0.5055900000000002Q49.0442,0.4237099999999998,48.9142,0.3542399999999999Q48.7842,0.2847599999999999,48.648,0.2283599999999999Q48.5119,0.1719599999999999,48.3708,0.12917999999999985Q48.2298,0.08639999999999981,48.0853,0.057640000000000136Q47.9407,0.028890000000000082,47.7941,0.014450000000000074Q47.6474,0,47.5,0Q47.2045,0,46.9147,0.057640000000000136Q46.6249,0.11528999999999989,46.3519,0.2283599999999999Q46.079,0.3414299999999999,45.8333,0.5055900000000002Q45.5876,0.6697500000000001,45.3787,0.8786800000000001L45.3768,0.8805299999999998L17.5,28.7574L5.12132,16.378700000000002Q4.91239,16.1697,4.66671,16.0056Q4.42103,15.8414,4.14805,15.7284Q3.8750679999999997,15.6153,3.585271,15.5576Q3.295474,15.5,3,15.5Q2.852619,15.5,2.705949,15.5144Q2.559278,15.5289,2.414729,15.5576Q2.27018,15.5864,2.129146,15.6292Q1.98811,15.672,1.85195,15.7284Q1.71579,15.7848,1.58581,15.8542Q1.45583,15.9237,1.33329,16.0056Q1.21075,16.0875,1.09682,16.180999999999997Q0.9828899999999998,16.2745,0.8786800000000001,16.378700000000002Q0.77447,16.4829,0.6809699999999999,16.5968Q0.5874700000000002,16.7107,0.5055900000000002,16.8333Q0.4237099999999998,16.9558,0.3542399999999999,17.0858Q0.2847599999999999,17.2158,0.2283599999999999,17.3519Q0.1719599999999999,17.4881,0.12917999999999985,17.6291Q0.08639999999999981,17.770200000000003,0.057640000000000136,17.9147Q0.028890000000000082,18.0593,0.014450000000000074,18.2059Q0,18.352600000000002,0,18.5Q0,18.7955,0.057640000000000136,19.0853Q0.11528999999999989,19.3751,0.2283599999999999,19.6481Q0.3414299999999999,19.921,0.5055900000000002,20.1667Q0.6697500000000001,20.4124,0.8786800000000001,20.6213L15.3787,35.1213Q15.5876,35.3302,15.8333,35.4944Q16.079,35.6586,16.3519,35.7716Q16.6249,35.8847,16.9147,35.9424Q17.2045,36,17.5,36Q17.7955,36,18.0853,35.9424Q18.3751,35.8847,18.648,35.7716Q18.921,35.6586,19.1667,35.4944Q19.4124,35.3302,19.6213,35.1213L49.6195,5.12317L49.6213,5.12132L49.6213,5.12132Z" fill-rule="evenodd" fill="#FFFFFF" fill-opacity="1" style="mix-blend-mode:passthrough"/></g></g></svg>