<?xml version="1.0" encoding="UTF-8"?>
<svg id="_图层_2" data-name="图层 2" xmlns="http://www.w3.org/2000/svg" viewBox="0 0 59 34">
  <defs>
    <style>
      .cls-1 {
        fill: #fff;
        stroke-width: 0px;
      }
    </style>
  </defs>
  <g id="_图层_1-2" data-name="图层 1">
    <g>
      <path class="cls-1" d="m46.84,34H5.16c-2.84,0-5.16-2.31-5.16-5.16V5.16C0,2.31,2.31,0,5.16,0h41.68c2.84,0,5.16,2.31,5.16,5.16v23.68c0,2.84-2.31,5.16-5.16,5.16ZM5.16,2c-1.74,0-3.16,1.42-3.16,3.16v23.68c0,1.74,1.42,3.16,3.16,3.16h41.68c1.74,0,3.16-1.42,3.16-3.16V5.16c0-1.74-1.42-3.16-3.16-3.16H5.16Z"/>
      <path class="cls-1" d="m53.25,8h-2.25v18h2.25c3.18,0,5.75-2.58,5.75-5.75v-6.5c0-3.18-2.58-5.75-5.75-5.75Z"/>
      <path class="cls-1" d="m25,29c-.48,0-.96-.17-1.35-.52-.82-.75-.87-2.01-.13-2.83l5.98-6.54-3.95-.62c-.91-.07-1.72-.59-2.16-1.41-.47-.87-.42-1.93.13-2.75l5.3-7.95c.61-.92,1.85-1.17,2.77-.55.92.61,1.17,1.85.55,2.77l-4.15,6.22,4.34.68c.93.07,1.76.62,2.19,1.46.46.91.37,1.98-.24,2.8-.04.06-.08.11-.13.16l-7.7,8.42c-.39.43-.93.65-1.48.65Z"/>
    </g>
  </g>
</svg>