<?xml version="1.0" encoding="UTF-8"?>
<svg id="_图层_2" data-name="图层 2" xmlns="http://www.w3.org/2000/svg" xmlns:xlink="http://www.w3.org/1999/xlink" viewBox="0 0 59 34">
  <defs>
    <style>
      .cls-1 {
        fill: none;
      }

      .cls-1, .cls-2, .cls-3 {
        stroke-width: 0px;
      }

      .cls-2 {
        fill: #fff;
      }

      .cls-4 {
        clip-path: url(#clippath);
      }

      .cls-3 {
        fill: #379bfd;
      }
    </style>
    <clipPath id="clippath">
      <polygon class="cls-1" points="35.67 2 35.44 2 30.89 2 30.67 2 26.11 2 25.89 2 21.33 2 21.11 2 16.56 2 16.33 2 11.78 2 11.56 2 7 2 6.78 2 2 2 2 32 6.78 32 7 32 11.56 32 11.78 32 16.33 32 16.56 32 21.11 32 21.33 32 25.89 32 26.11 32 30.67 32 30.89 32 35.44 32 35.67 32 40.44 32 40.44 2 35.67 2"/>
    </clipPath>
  </defs>
  <g id="_图层_1-2" data-name="图层 1">
    <g>
      <g class="cls-4">
        <rect class="cls-3" x="2" y="2" width="48" height="30"/>
      </g>
      <path class="cls-2" d="m46.84,34H5.16c-2.84,0-5.16-2.31-5.16-5.16V5.16C0,2.31,2.31,0,5.16,0h41.68c2.84,0,5.16,2.31,5.16,5.16v23.68c0,2.84-2.31,5.16-5.16,5.16ZM5.16,2c-1.74,0-3.16,1.42-3.16,3.16v23.68c0,1.74,1.42,3.16,3.16,3.16h41.68c1.74,0,3.16-1.42,3.16-3.16V5.16c0-1.74-1.42-3.16-3.16-3.16H5.16Z"/>
      <path class="cls-2" d="m53.25,8h-2.25v18h2.25c3.18,0,5.75-2.58,5.75-5.75v-6.5c0-3.18-2.58-5.75-5.75-5.75Z"/>
      <path class="cls-2" d="m25,29c-.48,0-.96-.17-1.35-.52-.82-.75-.87-2.01-.13-2.83l5.98-6.54-3.95-.62c-.91-.07-1.72-.59-2.16-1.41-.47-.87-.42-1.93.13-2.75l5.3-7.95c.61-.92,1.85-1.17,2.77-.55.92.61,1.17,1.85.55,2.77l-4.15,6.22,4.34.68c.93.07,1.76.62,2.19,1.46.46.91.37,1.98-.24,2.8-.04.06-.08.11-.13.16l-7.7,8.42c-.39.43-.93.65-1.48.65Z"/>
    </g>
  </g>
</svg>